<svg width="1512" height="888" viewBox="0 0 1512 888" fill="none" xmlns="http://www.w3.org/2000/svg">
<g id="Group 1">
<g id="snake game design">
<rect width="1512" height="888" rx="30" fill="#2B2D42"/>
<path id="Snake game" d="M62.96 81.42C59.88 81.42 57.12 80.92 54.68 79.92C52.24 78.92 50.28 77.44 48.8 75.48C47.36 73.52 46.6 71.16 46.52 68.4H57.44C57.6 69.96 58.14 71.16 59.06 72C59.98 72.8 61.18 73.2 62.66 73.2C64.18 73.2 65.38 72.86 66.26 72.18C67.14 71.46 67.58 70.48 67.58 69.24C67.58 68.2 67.22 67.34 66.5 66.66C65.82 65.98 64.96 65.42 63.92 64.98C62.92 64.54 61.48 64.04 59.6 63.48C56.88 62.64 54.66 61.8 52.94 60.96C51.22 60.12 49.74 58.88 48.5 57.24C47.26 55.6 46.64 53.46 46.64 50.82C46.64 46.9 48.06 43.84 50.9 41.64C53.74 39.4 57.44 38.28 62 38.28C66.64 38.28 70.38 39.4 73.22 41.64C76.06 43.84 77.58 46.92 77.78 50.88H66.68C66.6 49.52 66.1 48.46 65.18 47.7C64.26 46.9 63.08 46.5 61.64 46.5C60.4 46.5 59.4 46.84 58.64 47.52C57.88 48.16 57.5 49.1 57.5 50.34C57.5 51.7 58.14 52.76 59.42 53.52C60.7 54.28 62.7 55.1 65.42 55.98C68.14 56.9 70.34 57.78 72.02 58.62C73.74 59.46 75.22 60.68 76.46 62.28C77.7 63.88 78.32 65.94 78.32 68.46C78.32 70.86 77.7 73.04 76.46 75C75.26 76.96 73.5 78.52 71.18 79.68C68.86 80.84 66.12 81.42 62.96 81.42ZM105.034 47.16C108.954 47.16 112.074 48.44 114.394 51C116.754 53.52 117.934 57 117.934 61.44V81H107.734V62.82C107.734 60.58 107.154 58.84 105.994 57.6C104.834 56.36 103.274 55.74 101.314 55.74C99.3541 55.74 97.7941 56.36 96.6341 57.6C95.4741 58.84 94.8941 60.58 94.8941 62.82V81H84.6341V47.52H94.8941V51.96C95.9341 50.48 97.3341 49.32 99.0941 48.48C100.854 47.6 102.834 47.16 105.034 47.16ZM123.024 64.2C123.024 60.76 123.664 57.74 124.944 55.14C126.264 52.54 128.044 50.54 130.284 49.14C132.524 47.74 135.024 47.04 137.784 47.04C140.144 47.04 142.204 47.52 143.964 48.48C145.764 49.44 147.144 50.7 148.104 52.26V47.52H158.364V81H148.104V76.26C147.104 77.82 145.704 79.08 143.904 80.04C142.144 81 140.084 81.48 137.724 81.48C135.004 81.48 132.524 80.78 130.284 79.38C128.044 77.94 126.264 75.92 124.944 73.32C123.664 70.68 123.024 67.64 123.024 64.2ZM148.104 64.26C148.104 61.7 147.384 59.68 145.944 58.2C144.544 56.72 142.824 55.98 140.784 55.98C138.744 55.98 137.004 56.72 135.564 58.2C134.164 59.64 133.464 61.64 133.464 64.2C133.464 66.76 134.164 68.8 135.564 70.32C137.004 71.8 138.744 72.54 140.784 72.54C142.824 72.54 144.544 71.8 145.944 70.32C147.384 68.84 148.104 66.82 148.104 64.26ZM186.246 81L176.046 66.96V81H165.786V36.6H176.046V61.14L186.186 47.52H198.846L184.926 64.32L198.966 81H186.246ZM234.436 63.72C234.436 64.68 234.376 65.68 234.256 66.72H211.036C211.196 68.8 211.856 70.4 213.016 71.52C214.216 72.6 215.676 73.14 217.396 73.14C219.956 73.14 221.736 72.06 222.736 69.9H233.656C233.096 72.1 232.076 74.08 230.596 75.84C229.156 77.6 227.336 78.98 225.136 79.98C222.936 80.98 220.476 81.48 217.756 81.48C214.476 81.48 211.556 80.78 208.996 79.38C206.436 77.98 204.436 75.98 202.996 73.38C201.556 70.78 200.836 67.74 200.836 64.26C200.836 60.78 201.536 57.74 202.936 55.14C204.376 52.54 206.376 50.54 208.936 49.14C211.496 47.74 214.436 47.04 217.756 47.04C220.996 47.04 223.876 47.72 226.396 49.08C228.916 50.44 230.876 52.38 232.276 54.9C233.716 57.42 234.436 60.36 234.436 63.72ZM223.936 61.02C223.936 59.26 223.336 57.86 222.136 56.82C220.936 55.78 219.436 55.26 217.636 55.26C215.916 55.26 214.456 55.76 213.256 56.76C212.096 57.76 211.376 59.18 211.096 61.02H223.936ZM265.284 47.04C267.644 47.04 269.704 47.52 271.464 48.48C273.264 49.44 274.644 50.7 275.604 52.26V47.52H285.864V80.94C285.864 84.02 285.244 86.8 284.004 89.28C282.804 91.8 280.944 93.8 278.424 95.28C275.944 96.76 272.844 97.5 269.124 97.5C264.164 97.5 260.144 96.32 257.064 93.96C253.984 91.64 252.224 88.48 251.784 84.48H261.924C262.244 85.76 263.004 86.76 264.204 87.48C265.404 88.24 266.884 88.62 268.644 88.62C270.764 88.62 272.444 88 273.684 86.76C274.964 85.56 275.604 83.62 275.604 80.94V76.2C274.604 77.76 273.224 79.04 271.464 80.04C269.704 81 267.644 81.48 265.284 81.48C262.524 81.48 260.024 80.78 257.784 79.38C255.544 77.94 253.764 75.92 252.444 73.32C251.164 70.68 250.524 67.64 250.524 64.2C250.524 60.76 251.164 57.74 252.444 55.14C253.764 52.54 255.544 50.54 257.784 49.14C260.024 47.74 262.524 47.04 265.284 47.04ZM275.604 64.26C275.604 61.7 274.884 59.68 273.444 58.2C272.044 56.72 270.324 55.98 268.284 55.98C266.244 55.98 264.504 56.72 263.064 58.2C261.664 59.64 260.964 61.64 260.964 64.2C260.964 66.76 261.664 68.8 263.064 70.32C264.504 71.8 266.244 72.54 268.284 72.54C270.324 72.54 272.044 71.8 273.444 70.32C274.884 68.84 275.604 66.82 275.604 64.26ZM291.246 64.2C291.246 60.76 291.886 57.74 293.166 55.14C294.486 52.54 296.266 50.54 298.506 49.14C300.746 47.74 303.246 47.04 306.006 47.04C308.366 47.04 310.426 47.52 312.186 48.48C313.986 49.44 315.366 50.7 316.326 52.26V47.52H326.586V81H316.326V76.26C315.326 77.82 313.926 79.08 312.126 80.04C310.366 81 308.306 81.48 305.946 81.48C303.226 81.48 300.746 80.78 298.506 79.38C296.266 77.94 294.486 75.92 293.166 73.32C291.886 70.68 291.246 67.64 291.246 64.2ZM316.326 64.26C316.326 61.7 315.606 59.68 314.166 58.2C312.766 56.72 311.046 55.98 309.006 55.98C306.966 55.98 305.226 56.72 303.786 58.2C302.386 59.64 301.686 61.64 301.686 64.2C301.686 66.76 302.386 68.8 303.786 70.32C305.226 71.8 306.966 72.54 309.006 72.54C311.046 72.54 312.766 71.8 314.166 70.32C315.606 68.84 316.326 66.82 316.326 64.26ZM376.729 47.16C380.889 47.16 384.189 48.42 386.629 50.94C389.109 53.46 390.349 56.96 390.349 61.44V81H380.149V62.82C380.149 60.66 379.569 59 378.409 57.84C377.289 56.64 375.729 56.04 373.729 56.04C371.729 56.04 370.149 56.64 368.989 57.84C367.869 59 367.309 60.66 367.309 62.82V81H357.109V62.82C357.109 60.66 356.529 59 355.369 57.84C354.249 56.64 352.689 56.04 350.689 56.04C348.689 56.04 347.109 56.64 345.949 57.84C344.829 59 344.269 60.66 344.269 62.82V81H334.009V47.52H344.269V51.72C345.309 50.32 346.669 49.22 348.349 48.42C350.029 47.58 351.929 47.16 354.049 47.16C356.569 47.16 358.809 47.7 360.769 48.78C362.769 49.86 364.329 51.4 365.449 53.4C366.609 51.56 368.189 50.06 370.189 48.9C372.189 47.74 374.369 47.16 376.729 47.16ZM429.085 63.72C429.085 64.68 429.025 65.68 428.905 66.72H405.685C405.845 68.8 406.505 70.4 407.665 71.52C408.865 72.6 410.325 73.14 412.045 73.14C414.605 73.14 416.385 72.06 417.385 69.9H428.305C427.745 72.1 426.725 74.08 425.245 75.84C423.805 77.6 421.985 78.98 419.785 79.98C417.585 80.98 415.125 81.48 412.405 81.48C409.125 81.48 406.205 80.78 403.645 79.38C401.085 77.98 399.085 75.98 397.645 73.38C396.205 70.78 395.485 67.74 395.485 64.26C395.485 60.78 396.185 57.74 397.585 55.14C399.025 52.54 401.025 50.54 403.585 49.14C406.145 47.74 409.085 47.04 412.405 47.04C415.645 47.04 418.525 47.72 421.045 49.08C423.565 50.44 425.525 52.38 426.925 54.9C428.365 57.42 429.085 60.36 429.085 63.72ZM418.585 61.02C418.585 59.26 417.985 57.86 416.785 56.82C415.585 55.78 414.085 55.26 412.285 55.26C410.565 55.26 409.105 55.76 407.905 56.76C406.745 57.76 406.025 59.18 405.745 61.02H418.585Z" fill="#FFC300"/>
<rect id="Rectangle 1" x="44" y="117" width="803" height="710" rx="20" fill="#27283C"/>
<rect id="Rectangle 2" x="876" y="117" width="595" height="710" rx="20" fill="#27283B"/>
<rect id="Rectangle 3" x="906" y="154" width="260" height="310" rx="20" fill="#2B2D42"/>
<rect id="Rectangle 5" x="906" y="484" width="536" height="310" rx="20" fill="#2B2D42"/>
<rect id="Rectangle 6" x="1131" y="530" width="86" height="86" rx="12" fill="#33364E"/>
<rect id="Rectangle 7" x="1131" y="652" width="86" height="86" rx="12" fill="#33364E"/>
<rect id="Rectangle 8" x="1232" y="589" width="86" height="86" rx="12" fill="#33364E"/>
<rect id="Rectangle 9" x="1030" y="589" width="86" height="86" rx="12" fill="#33364E"/>
<rect id="Rectangle 4" x="1182" y="154" width="260" height="310" rx="20" fill="#2B2D42"/>
<path id="Scores" d="M972.22 219.315C969.91 219.315 967.84 218.94 966.01 218.19C964.18 217.44 962.71 216.33 961.6 214.86C960.52 213.39 959.95 211.62 959.89 209.55H968.08C968.2 210.72 968.605 211.62 969.295 212.25C969.985 212.85 970.885 213.15 971.995 213.15C973.135 213.15 974.035 212.895 974.695 212.385C975.355 211.845 975.685 211.11 975.685 210.18C975.685 209.4 975.415 208.755 974.875 208.245C974.365 207.735 973.72 207.315 972.94 206.985C972.19 206.655 971.11 206.28 969.7 205.86C967.66 205.23 965.995 204.6 964.705 203.97C963.415 203.34 962.305 202.41 961.375 201.18C960.445 199.95 959.98 198.345 959.98 196.365C959.98 193.425 961.045 191.13 963.175 189.48C965.305 187.8 968.08 186.96 971.5 186.96C974.98 186.96 977.785 187.8 979.915 189.48C982.045 191.13 983.185 193.44 983.335 196.41H975.01C974.95 195.39 974.575 194.595 973.885 194.025C973.195 193.425 972.31 193.125 971.23 193.125C970.3 193.125 969.55 193.38 968.98 193.89C968.41 194.37 968.125 195.075 968.125 196.005C968.125 197.025 968.605 197.82 969.565 198.39C970.525 198.96 972.025 199.575 974.065 200.235C976.105 200.925 977.755 201.585 979.015 202.215C980.305 202.845 981.415 203.76 982.345 204.96C983.275 206.16 983.74 207.705 983.74 209.595C983.74 211.395 983.275 213.03 982.345 214.5C981.445 215.97 980.125 217.14 978.385 218.01C976.645 218.88 974.59 219.315 972.22 219.315ZM986.946 206.445C986.946 203.835 987.471 201.555 988.521 199.605C989.601 197.655 991.086 196.155 992.976 195.105C994.896 194.055 997.086 193.53 999.546 193.53C1002.7 193.53 1005.32 194.355 1007.42 196.005C1009.55 197.655 1010.95 199.98 1011.61 202.98H1003.42C1002.73 201.06 1001.39 200.1 999.411 200.1C998.001 200.1 996.876 200.655 996.036 201.765C995.196 202.845 994.776 204.405 994.776 206.445C994.776 208.485 995.196 210.06 996.036 211.17C996.876 212.25 998.001 212.79 999.411 212.79C1001.39 212.79 1002.73 211.83 1003.42 209.91H1011.61C1010.95 212.85 1009.55 215.16 1007.42 216.84C1005.29 218.52 1002.67 219.36 999.546 219.36C997.086 219.36 994.896 218.835 992.976 217.785C991.086 216.735 989.601 215.235 988.521 213.285C987.471 211.335 986.946 209.055 986.946 206.445ZM1027.15 219.36C1024.69 219.36 1022.47 218.835 1020.49 217.785C1018.54 216.735 1017 215.235 1015.86 213.285C1014.75 211.335 1014.19 209.055 1014.19 206.445C1014.19 203.865 1014.76 201.6 1015.9 199.65C1017.04 197.67 1018.6 196.155 1020.58 195.105C1022.56 194.055 1024.78 193.53 1027.24 193.53C1029.7 193.53 1031.92 194.055 1033.9 195.105C1035.88 196.155 1037.44 197.67 1038.58 199.65C1039.72 201.6 1040.29 203.865 1040.29 206.445C1040.29 209.025 1039.71 211.305 1038.54 213.285C1037.4 215.235 1035.82 216.735 1033.81 217.785C1031.83 218.835 1029.61 219.36 1027.15 219.36ZM1027.15 212.7C1028.62 212.7 1029.87 212.16 1030.89 211.08C1031.94 210 1032.46 208.455 1032.46 206.445C1032.46 204.435 1031.95 202.89 1030.93 201.81C1029.94 200.73 1028.71 200.19 1027.24 200.19C1025.74 200.19 1024.5 200.73 1023.51 201.81C1022.52 202.86 1022.02 204.405 1022.02 206.445C1022.02 208.455 1022.5 210 1023.46 211.08C1024.45 212.16 1025.68 212.7 1027.15 212.7ZM1052.07 198.075C1052.97 196.695 1054.09 195.615 1055.44 194.835C1056.79 194.025 1058.29 193.62 1059.94 193.62V201.765H1057.83C1055.91 201.765 1054.47 202.185 1053.51 203.025C1052.55 203.835 1052.07 205.275 1052.07 207.345V219H1044.37V193.89H1052.07V198.075ZM1087.29 206.04C1087.29 206.76 1087.25 207.51 1087.16 208.29H1069.74C1069.86 209.85 1070.36 211.05 1071.23 211.89C1072.13 212.7 1073.22 213.105 1074.51 213.105C1076.43 213.105 1077.77 212.295 1078.52 210.675H1086.71C1086.29 212.325 1085.52 213.81 1084.41 215.13C1083.33 216.45 1081.97 217.485 1080.32 218.235C1078.67 218.985 1076.82 219.36 1074.78 219.36C1072.32 219.36 1070.13 218.835 1068.21 217.785C1066.29 216.735 1064.79 215.235 1063.71 213.285C1062.63 211.335 1062.09 209.055 1062.09 206.445C1062.09 203.835 1062.62 201.555 1063.67 199.605C1064.75 197.655 1066.25 196.155 1068.17 195.105C1070.09 194.055 1072.29 193.53 1074.78 193.53C1077.21 193.53 1079.37 194.04 1081.26 195.06C1083.15 196.08 1084.62 197.535 1085.67 199.425C1086.75 201.315 1087.29 203.52 1087.29 206.04ZM1079.42 204.015C1079.42 202.695 1078.97 201.645 1078.07 200.865C1077.17 200.085 1076.04 199.695 1074.69 199.695C1073.4 199.695 1072.31 200.07 1071.41 200.82C1070.54 201.57 1070 202.635 1069.79 204.015H1079.42ZM1101.57 219.36C1099.38 219.36 1097.43 218.985 1095.72 218.235C1094.01 217.485 1092.66 216.465 1091.67 215.175C1090.68 213.855 1090.12 212.385 1090 210.765H1097.61C1097.7 211.635 1098.1 212.34 1098.82 212.88C1099.54 213.42 1100.43 213.69 1101.48 213.69C1102.44 213.69 1103.17 213.51 1103.68 213.15C1104.22 212.76 1104.49 212.265 1104.49 211.665C1104.49 210.945 1104.12 210.42 1103.37 210.09C1102.62 209.73 1101.4 209.34 1099.72 208.92C1097.92 208.5 1096.42 208.065 1095.22 207.615C1094.02 207.135 1092.99 206.4 1092.12 205.41C1091.25 204.39 1090.81 203.025 1090.81 201.315C1090.81 199.875 1091.2 198.57 1091.98 197.4C1092.79 196.2 1093.96 195.255 1095.49 194.565C1097.05 193.875 1098.9 193.53 1101.03 193.53C1104.18 193.53 1106.65 194.31 1108.45 195.87C1110.28 197.43 1111.33 199.5 1111.6 202.08H1104.49C1104.37 201.21 1103.98 200.52 1103.32 200.01C1102.69 199.5 1101.85 199.245 1100.8 199.245C1099.9 199.245 1099.21 199.425 1098.73 199.785C1098.25 200.115 1098.01 200.58 1098.01 201.18C1098.01 201.9 1098.39 202.44 1099.14 202.8C1099.92 203.16 1101.12 203.52 1102.74 203.88C1104.6 204.36 1106.11 204.84 1107.28 205.32C1108.45 205.77 1109.47 206.52 1110.34 207.57C1111.24 208.59 1111.71 209.97 1111.74 211.71C1111.74 213.18 1111.32 214.5 1110.48 215.67C1109.67 216.81 1108.48 217.71 1106.92 218.37C1105.39 219.03 1103.61 219.36 1101.57 219.36Z" fill="#FF0054"/>
<path id="Level" d="M1262.49 213.06H1272.57V219H1254.79V187.41H1262.49V213.06ZM1299.91 206.04C1299.91 206.76 1299.86 207.51 1299.77 208.29H1282.36C1282.48 209.85 1282.97 211.05 1283.84 211.89C1284.74 212.7 1285.84 213.105 1287.13 213.105C1289.05 213.105 1290.38 212.295 1291.13 210.675H1299.32C1298.9 212.325 1298.14 213.81 1297.03 215.13C1295.95 216.45 1294.58 217.485 1292.93 218.235C1291.28 218.985 1289.44 219.36 1287.4 219.36C1284.94 219.36 1282.75 218.835 1280.83 217.785C1278.91 216.735 1277.41 215.235 1276.33 213.285C1275.25 211.335 1274.71 209.055 1274.71 206.445C1274.71 203.835 1275.23 201.555 1276.28 199.605C1277.36 197.655 1278.86 196.155 1280.78 195.105C1282.7 194.055 1284.91 193.53 1287.4 193.53C1289.83 193.53 1291.99 194.04 1293.88 195.06C1295.77 196.08 1297.24 197.535 1298.29 199.425C1299.37 201.315 1299.91 203.52 1299.91 206.04ZM1292.03 204.015C1292.03 202.695 1291.58 201.645 1290.68 200.865C1289.78 200.085 1288.66 199.695 1287.31 199.695C1286.02 199.695 1284.92 200.07 1284.02 200.82C1283.15 201.57 1282.61 202.635 1282.4 204.015H1292.03ZM1315.26 211.8L1320.7 193.89H1328.89L1319.98 219H1310.49L1301.58 193.89H1309.81L1315.26 211.8ZM1355.8 206.04C1355.8 206.76 1355.76 207.51 1355.67 208.29H1338.25C1338.37 209.85 1338.87 211.05 1339.74 211.89C1340.64 212.7 1341.73 213.105 1343.02 213.105C1344.94 213.105 1346.28 212.295 1347.03 210.675H1355.22C1354.8 212.325 1354.03 213.81 1352.92 215.13C1351.84 216.45 1350.48 217.485 1348.83 218.235C1347.18 218.985 1345.33 219.36 1343.29 219.36C1340.83 219.36 1338.64 218.835 1336.72 217.785C1334.8 216.735 1333.3 215.235 1332.22 213.285C1331.14 211.335 1330.6 209.055 1330.6 206.445C1330.6 203.835 1331.13 201.555 1332.18 199.605C1333.26 197.655 1334.76 196.155 1336.68 195.105C1338.6 194.055 1340.8 193.53 1343.29 193.53C1345.72 193.53 1347.88 194.04 1349.77 195.06C1351.66 196.08 1353.13 197.535 1354.18 199.425C1355.26 201.315 1355.8 203.52 1355.8 206.04ZM1347.93 204.015C1347.93 202.695 1347.48 201.645 1346.58 200.865C1345.68 200.085 1344.55 199.695 1343.2 199.695C1341.91 199.695 1340.82 200.07 1339.92 200.82C1339.05 201.57 1338.51 202.635 1338.3 204.015H1347.93ZM1367.56 185.7V219H1359.86V185.7H1367.56Z" fill="#AA16E8"/>
<path id="10" d="M992.43 311.61V297.3H1017.36V363H1001.34V311.61H992.43ZM1027.89 329.25C1027.89 318.93 1029.87 310.8 1033.83 304.86C1037.85 298.92 1044.3 295.95 1053.18 295.95C1062.06 295.95 1068.48 298.92 1072.44 304.86C1076.46 310.8 1078.47 318.93 1078.47 329.25C1078.47 339.69 1076.46 347.88 1072.44 353.82C1068.48 359.76 1062.06 362.73 1053.18 362.73C1044.3 362.73 1037.85 359.76 1033.83 353.82C1029.87 347.88 1027.89 339.69 1027.89 329.25ZM1063.35 329.25C1063.35 323.19 1062.69 318.54 1061.37 315.3C1060.05 312 1057.32 310.35 1053.18 310.35C1049.04 310.35 1046.31 312 1044.99 315.3C1043.67 318.54 1043.01 323.19 1043.01 329.25C1043.01 333.33 1043.25 336.72 1043.73 339.42C1044.21 342.06 1045.17 344.22 1046.61 345.9C1048.11 347.52 1050.3 348.33 1053.18 348.33C1056.06 348.33 1058.22 347.52 1059.66 345.9C1061.16 344.22 1062.15 342.06 1062.63 339.42C1063.11 336.72 1063.35 333.33 1063.35 329.25Z" fill="#FF0054"/>
<path id="3" d="M1286.59 315.84C1286.83 309.42 1288.93 304.47 1292.89 300.99C1296.85 297.51 1302.22 295.77 1309 295.77C1313.5 295.77 1317.34 296.55 1320.52 298.11C1323.76 299.67 1326.19 301.8 1327.81 304.5C1329.49 307.2 1330.33 310.23 1330.33 313.59C1330.33 317.55 1329.34 320.79 1327.36 323.31C1325.38 325.77 1323.07 327.45 1320.43 328.35V328.71C1323.85 329.85 1326.55 331.74 1328.53 334.38C1330.51 337.02 1331.5 340.41 1331.5 344.55C1331.5 348.27 1330.63 351.57 1328.89 354.45C1327.21 357.27 1324.72 359.49 1321.42 361.11C1318.18 362.73 1314.31 363.54 1309.81 363.54C1302.61 363.54 1296.85 361.77 1292.53 358.23C1288.27 354.69 1286.02 349.35 1285.78 342.21H1300.72C1300.78 344.85 1301.53 346.95 1302.97 348.51C1304.41 350.01 1306.51 350.76 1309.27 350.76C1311.61 350.76 1313.41 350.1 1314.67 348.78C1315.99 347.4 1316.65 345.6 1316.65 343.38C1316.65 340.5 1315.72 338.43 1313.86 337.17C1312.06 335.85 1309.15 335.19 1305.13 335.19H1302.25V322.68H1305.13C1308.19 322.68 1310.65 322.17 1312.51 321.15C1314.43 320.07 1315.39 318.18 1315.39 315.48C1315.39 313.32 1314.79 311.64 1313.59 310.44C1312.39 309.24 1310.74 308.64 1308.64 308.64C1306.36 308.64 1304.65 309.33 1303.51 310.71C1302.43 312.09 1301.8 313.8 1301.62 315.84H1286.59Z" fill="#AA16E8"/>
<path id="Vector" d="M87.0477 140.1C83.6666 140.1 82 143.224 82 143.224C82 143.224 80.3334 140.1 76.9524 140.1C74.2046 140.1 72.0287 142.254 72.0005 144.825C71.9432 150.161 76.5175 153.956 81.5313 157.146C81.6695 157.234 81.8328 157.281 82 157.281C82.1672 157.281 82.3305 157.234 82.4687 157.146C87.482 153.956 92.0562 150.161 91.9995 144.825C91.9714 142.254 89.7954 140.1 87.0477 140.1V140.1Z" fill="#FF0054"/>
<path id="Vector_2" d="M116.048 140.1C112.667 140.1 111 143.224 111 143.224C111 143.224 109.333 140.1 105.952 140.1C103.205 140.1 101.029 142.254 101.001 144.825C100.943 150.161 105.517 153.956 110.531 157.146C110.67 157.234 110.833 157.281 111 157.281C111.167 157.281 111.331 157.234 111.469 157.146C116.482 153.956 121.056 150.161 120.999 144.825C120.971 142.254 118.795 140.1 116.048 140.1V140.1Z" fill="#FF0054"/>
<path id="Vector_3" d="M145.048 140.1C141.667 140.1 140 143.224 140 143.224C140 143.224 138.333 140.1 134.952 140.1C132.205 140.1 130.029 142.254 130.001 144.825C129.943 150.161 134.517 153.956 139.531 157.146C139.67 157.234 139.833 157.281 140 157.281C140.167 157.281 140.331 157.234 140.469 157.146C145.482 153.956 150.056 150.161 149.999 144.825C149.971 142.254 147.795 140.1 145.048 140.1V140.1Z" fill="#FF0054"/>
<path id="Vector_4" d="M174.048 140.1C170.667 140.1 169 143.224 169 143.224C169 143.224 167.333 140.1 163.952 140.1C161.205 140.1 159.029 142.254 159.001 144.825C158.943 150.161 163.517 153.956 168.531 157.146C168.67 157.234 168.833 157.281 169 157.281C169.167 157.281 169.331 157.234 169.469 157.146C174.482 153.956 179.056 150.161 178.999 144.825C178.971 142.254 176.795 140.1 174.048 140.1V140.1Z" fill="#FF0054"/>
<path id="Vector_5" d="M203.048 140.1C199.667 140.1 198 143.224 198 143.224C198 143.224 196.333 140.1 192.952 140.1C190.205 140.1 188.029 142.254 188.001 144.825C187.943 150.161 192.517 153.956 197.531 157.146C197.67 157.234 197.833 157.281 198 157.281C198.167 157.281 198.331 157.234 198.469 157.146C203.482 153.956 208.056 150.161 207.999 144.825C207.971 142.254 205.795 140.1 203.048 140.1V140.1Z" fill="#FF0054"/>
<path id="Polygon 1" d="M1174 555L1189.59 582H1158.41L1174 555Z" fill="#AA16E8"/>
<path id="Polygon 3" d="M1293 632L1266 647.588V616.412L1293 632Z" fill="#AA16E8"/>
<path id="Polygon 4" d="M1055 632L1082 616.412V647.588L1055 632Z" fill="#AA16E8"/>
<path id="Polygon 2" d="M1174 713L1158.41 686H1189.59L1174 713Z" fill="#AA16E8"/>
<path id="Vector_6" d="M738.349 403.496C737.813 404.651 737.15 405.752 736.372 406.782C735.332 408.155 734.478 409.103 733.823 409.63C732.807 410.493 731.714 410.936 730.547 410.961C729.71 410.961 728.699 410.741 727.521 410.294C726.34 409.849 725.256 409.63 724.262 409.63C723.222 409.63 722.107 409.849 720.912 410.294C719.719 410.741 718.754 410.976 718.016 410.997C716.899 411.042 715.781 410.587 714.668 409.63C713.957 409.058 713.068 408.074 712.001 406.682C710.858 405.199 709.919 403.473 709.183 401.511C708.395 399.387 708 397.334 708 395.345C708 393.067 708.533 391.101 709.6 389.456C710.407 388.163 711.561 387.084 712.95 386.323C714.32 385.564 715.884 385.156 717.482 385.139C718.373 385.139 719.541 385.393 720.987 385.894C722.434 386.395 723.363 386.649 723.768 386.649C724.074 386.649 725.103 386.35 726.853 385.758C728.505 385.209 729.9 384.982 731.042 385.071C734.141 385.302 736.467 386.429 738.014 388.461C735.245 390.012 733.876 392.182 733.903 394.967C733.926 397.137 734.78 398.942 736.453 400.375C737.193 401.029 738.056 401.552 739 401.919C738.795 402.468 738.578 402.992 738.349 403.496V403.496ZM731.248 377.682C731.248 379.381 730.574 380.969 729.235 382.438C727.616 384.184 725.66 385.195 723.54 385.035C723.512 384.822 723.498 384.607 723.499 384.392C723.499 382.758 724.266 381.012 725.635 379.583C726.317 378.86 727.184 378.258 728.236 377.778C729.286 377.306 730.277 377.045 731.211 377C731.236 377.229 731.248 377.456 731.248 377.682V377.682Z" fill="white"/>
<path id="Vector_7" d="M165.349 617.834C164.813 619.091 164.15 620.289 163.372 621.41C162.332 622.903 161.478 623.935 160.823 624.509C159.807 625.448 158.714 625.931 157.547 625.958C156.71 625.958 155.699 625.718 154.521 625.232C153.34 624.747 152.256 624.509 151.262 624.509C150.222 624.509 149.107 624.747 147.912 625.232C146.719 625.718 145.754 625.973 145.016 625.997C143.899 626.045 142.781 625.551 141.668 624.509C140.957 623.887 140.068 622.816 139.001 621.301C137.858 619.688 136.919 617.809 136.183 615.673C135.395 613.363 135 611.128 135 608.963C135 606.485 135.533 604.346 136.6 602.555C137.407 601.148 138.561 599.974 139.95 599.146C141.32 598.32 142.884 597.875 144.482 597.857C145.373 597.857 146.541 598.134 147.987 598.679C149.434 599.224 150.363 599.5 150.768 599.5C151.074 599.5 152.103 599.175 153.853 598.531C155.505 597.933 156.9 597.686 158.042 597.783C161.141 598.035 163.467 599.261 165.014 601.472C162.245 603.16 160.876 605.522 160.903 608.552C160.926 610.914 161.78 612.878 163.453 614.437C164.193 615.149 165.056 615.718 166 616.117C165.795 616.715 165.578 617.285 165.349 617.834V617.834ZM158.248 589.742C158.248 591.591 157.574 593.32 156.235 594.918C154.616 596.818 152.66 597.918 150.54 597.745C150.512 597.512 150.498 597.278 150.499 597.044C150.499 595.266 151.266 593.366 152.635 591.811C153.317 591.025 154.184 590.369 155.236 589.847C156.286 589.333 157.277 589.049 158.211 589C158.236 589.249 158.248 589.496 158.248 589.742V589.742Z" fill="white"/>
<rect id="Rectangle 10" x="357" y="363" width="27" height="287" fill="#AA16E8"/>
<rect id="Rectangle 17" x="745" y="237" width="27" height="287" transform="rotate(90 745 237)" fill="#AA16E8"/>
<rect id="Rectangle 11" x="699" y="429" width="48" height="43" rx="12" fill="#1BBF18"/>
<rect id="Rectangle 13" x="715" y="444" width="37" height="33" rx="12" fill="#1BBF18"/>
<rect id="Rectangle 14" x="693" y="444" width="37" height="33" rx="12" fill="#1BBF18"/>
<rect id="Rectangle 15" x="705" y="453" width="36" height="24" fill="#1BBF18"/>
<rect id="Rectangle 16" x="708" y="472" width="30" height="278" fill="#1BBF18"/>
<circle id="Ellipse 1" cx="740" cy="457" r="5" fill="white"/>
<circle id="Ellipse 2" cx="705" cy="457" r="5" fill="white"/>
</g>
</g>
</svg>
